ffmpeg started on 2025-05-13 at 10:23:51
Report written to "D:\Convert\FFMetrics\reports\ssim_report-6.txt"
Log level: 32
Command line:
ffmpeg -hide_banner -nostdin -i "G:\\\xc0\xed\xe8\xec\xe5\\\xce\xed\xe3\xee\xe8\xed\xe3\xe8\\!_35_\xcb\xe5\xf2\xee_2024\\DreamCast-1\\\xd3 \xec\xee\xe5\xe9 \xe6\xe5\xed\xfb \xed\xe5\xf2 \xfd\xec\xee\xf6\xe8\xe9\\[DC] Boku no Tsuma wa Kanjou ga Nai - 09_Telegram_HEVC.mkv" -i "G:\\\xc0\xed\xe8\xec\xe5\\\xce\xed\xe3\xee\xe8\xed\xe3\xe8\\!_35_\xcb\xe5\xf2\xee_2024\\DreamCast-1\\\xd3 \xec\xee\xe5\xe9 \xe6\xe5\xed\xfb \xed\xe5\xf2 \xfd\xec\xee\xf6\xe8\xe9\\[DC] Boku no Tsuma wa Kanjou ga Nai - 09_Telegram.mp4" -lavfi "[0:v]settb=AVTB,setpts=PTS-STARTPTS,format=pix_fmts=yuv420p10,fps=24000/1001,scale=1920:1080:flags=bicubic[main];[1:v]settb=AVTB,setpts=PTS-STARTPTS,format=pix_fmts=yuv420p,fps=24000/1001,scale=1920:1080:flags=bicubic[ref];[main][ref]ssim=eof_action=endall:stats_file='D\\:/Convert/FFMetrics/logs/ssim_logfile-6.txt'" -f null -
Input #0, matroska,webm, from 'G:\Аниме\Онгоинги\!_35_Лето_2024\DreamCast-1\У моей жены нет эмоций\[DC] Boku no Tsuma wa Kanjou ga Nai - 09_Telegram_HEVC.mkv':
  Metadata:
    COMPATIBLE_BRANDS: isomiso2avc1mp41
    MAJOR_BRAND     : isom
    MINOR_VERSION   : 512
    ENCODER         : Lavf61.7.100
  Duration: 00:23:46.60, start: -0.021000, bitrate: 1259 kb/s
  Stream #0:0: Video: hevc (Main 10), yuv420p10le(tv, bt709, progressive), 1920x1080 [SAR 1:1 DAR 16:9], 23.98 fps, 23.98 tbr, 1k tbn (default)
      Metadata:
        HANDLER_NAME    : VideoHandler
        VENDOR_ID       : [0][0][0][0]
        ENCODER         : Lavc61.19.100 libx265
        BPS             : 1061867
        DURATION        : 00:23:46.508708333
        NUMBER_OF_FRAMES: 34202
        NUMBER_OF_BYTES : 189345337
        _STATISTICS_WRITING_APP: mkvpropedit v66.0.0 ('Josie') 64-bit
        _STATISTICS_WRITING_DATE_UTC: 2025-05-11 13:24:27
        _STATISTICS_TAGS: BPS DURATION NUMBER_OF_FRAMES NUMBER_OF_BYTES
  Stream #0:1: Audio: aac (LC), 48000 Hz, stereo, fltp (default)
      Metadata:
        HANDLER_NAME    : SoundHandler
        VENDOR_ID       : [0][0][0][0]
        ENCODER         : Lavc61.19.100 aac
        BPS             : 193582
        DURATION        : 00:23:46.602000000
        NUMBER_OF_FRAMES: 66873
        NUMBER_OF_BYTES : 34520684
        _STATISTICS_WRITING_APP: mkvpropedit v66.0.0 ('Josie') 64-bit
        _STATISTICS_WRITING_DATE_UTC: 2025-05-11 13:24:27
        _STATISTICS_TAGS: BPS DURATION NUMBER_OF_FRAMES NUMBER_OF_BYTES
Input #1, mov,mp4,m4a,3gp,3g2,mj2, from 'G:\Аниме\Онгоинги\!_35_Лето_2024\DreamCast-1\У моей жены нет эмоций\[DC] Boku no Tsuma wa Kanjou ga Nai - 09_Telegram.mp4':
  Metadata:
    major_brand     : isom
    minor_version   : 512
    compatible_brands: isomiso2avc1mp41
    encoder         : Lavf60.16.100
  Duration: 00:23:46.57, start: 0.000000, bitrate: 3930 kb/s
  Stream #1:0[0x1](und): Video: h264 (High) (avc1 / 0x31637661), yuv420p(tv, bt709, progressive), 1920x1080 [SAR 1:1 DAR 16:9], 3782 kb/s, 23.98 fps, 23.98 tbr, 24k tbn (default)
      Metadata:
        handler_name    : VideoHandler
        vendor_id       : [0][0][0][0]
        encoder         : Lavc60.31.102 h264_qsv
  Stream #1:1[0x2](und): Audio: aac (HE-AACv2) (mp4a / 0x6134706D), 48000 Hz, stereo, fltp, 144 kb/s (default)
      Metadata:
        handler_name    : SoundHandler
        vendor_id       : [0][0][0][0]
Stream mapping:
  Stream #0:0 (hevc) -> settb:default
  Stream #1:0 (h264) -> settb:default
  ssim:default -> Stream #0:0 (wrapped_avframe)
  Stream #0:1 -> #0:1 (aac (native) -> pcm_s16le (native))
Output #0, null, to 'pipe:':
  Metadata:
    COMPATIBLE_BRANDS: isomiso2avc1mp41
    MAJOR_BRAND     : isom
    MINOR_VERSION   : 512
    encoder         : Lavf61.7.100
  Stream #0:0: Video: wrapped_avframe, yuv420p10le(tv, bt709, progressive), 1920x1080 [SAR 1:1 DAR 16:9], q=2-31, 200 kb/s, 23.98 fps, 23.98 tbn
      Metadata:
        encoder         : Lavc61.19.100 wrapped_avframe
  Stream #0:1: Audio: pcm_s16le, 48000 Hz, stereo, s16, 1536 kb/s (default)
      Metadata:
        HANDLER_NAME    : SoundHandler
        VENDOR_ID       : [0][0][0][0]
        _STATISTICS_TAGS: BPS DURATION NUMBER_OF_FRAMES NUMBER_OF_BYTES
        BPS             : 193582
        DURATION        : 00:23:46.602000000
        NUMBER_OF_FRAMES: 66873
        NUMBER_OF_BYTES : 34520684
        _STATISTICS_WRITING_APP: mkvpropedit v66.0.0 ('Josie') 64-bit
        _STATISTICS_WRITING_DATE_UTC: 2025-05-11 13:24:27
        encoder         : Lavc61.19.100 pcm_s16le
frame=  184 fps=0.0 q=-0.0 size=N/A time=00:00:07.67 bitrate=N/A speed=14.9x    frame=  417 fps=409 q=-0.0 size=N/A time=00:00:17.39 bitrate=N/A speed=  17x    frame=  658 fps=426 q=-0.0 size=N/A time=00:00:27.44 bitrate=N/A speed=17.8x    frame=  921 fps=449 q=-0.0 size=N/A time=00:00:38.41 bitrate=N/A speed=18.7x    frame= 1170 fps=454 q=-0.0 size=N/A time=00:00:48.79 bitrate=N/A speed=  19x    frame= 1394 fps=451 q=-0.0 size=N/A time=00:00:58.14 bitrate=N/A speed=18.8x    frame= 1632 fps=453 q=-0.0 size=N/A time=00:01:08.06 bitrate=N/A speed=18.9x    frame= 1892 fps=459 q=-0.0 size=N/A time=00:01:18.91 bitrate=N/A speed=19.1x    frame= 2119 fps=458 q=-0.0 size=N/A time=00:01:28.37 bitrate=N/A speed=19.1x    frame= 2368 fps=460 q=-0.0 size=N/A time=00:01:38.76 bitrate=N/A speed=19.2x    frame= 2592 fps=458 q=-0.0 size=N/A time=00:01:48.10 bitrate=N/A speed=19.1x    frame= 2805 fps=454 q=-0.0 size=N/A time=00:01:56.99 bitrate=N/A speed=18.9x    frame= 3013 fps=450 q=-0.0 size=N/A time=00:02:05.66 bitrate=N/A speed=18.8x    frame= 3232 fps=448 q=-0.0 size=N/A time=00:02:14.80 bitrate=N/A speed=18.7x    frame= 3438 fps=445 q=-0.0 size=N/A time=00:02:23.39 bitrate=N/A speed=18.5x    frame= 3589 fps=436 q=-0.0 size=N/A time=00:02:29.69 bitrate=N/A speed=18.2x    frame= 3769 fps=430 q=-0.0 size=N/A time=00:02:37.19 bitrate=N/A speed=17.9x    frame= 3964 fps=427 q=-0.0 size=N/A time=00:02:45.33 bitrate=N/A speed=17.8x    frame= 4177 fps=426 q=-0.0 size=N/A time=00:02:54.21 bitrate=N/A speed=17.8x    frame= 4396 fps=426 q=-0.0 size=N/A time=00:03:03.34 bitrate=N/A speed=17.8x    frame= 4584 fps=424 q=-0.0 size=N/A time=00:03:11.19 bitrate=N/A speed=17.7x    frame= 4752 fps=419 q=-0.0 size=N/A time=00:03:18.19 bitrate=N/A speed=17.5x    frame= 4959 fps=418 q=-0.0 size=N/A time=00:03:26.83 bitrate=N/A speed=17.4x    frame= 5214 fps=422 q=-0.0 size=N/A time=00:03:37.46 bitrate=N/A speed=17.6x    frame= 5469 fps=424 q=-0.0 size=N/A time=00:03:48.10 bitrate=N/A speed=17.7x    frame= 5680 fps=424 q=-0.0 size=N/A time=00:03:56.90 bitrate=N/A speed=17.7x    frame= 5873 fps=422 q=-0.0 size=N/A time=00:04:04.95 bitrate=N/A speed=17.6x    frame= 6121 fps=424 q=-0.0 size=N/A time=00:04:15.29 bitrate=N/A speed=17.7x    frame= 6308 fps=422 q=-0.0 size=N/A time=00:04:23.09 bitrate=N/A speed=17.6x    frame= 6540 fps=423 q=-0.0 size=N/A time=00:04:32.77 bitrate=N/A speed=17.6x    frame= 6782 fps=425 q=-0.0 size=N/A time=00:04:42.86 bitrate=N/A speed=17.7x    frame= 7032 fps=426 q=-0.0 size=N/A time=00:04:53.29 bitrate=N/A speed=17.8x    frame= 7277 fps=428 q=-0.0 size=N/A time=00:05:03.51 bitrate=N/A speed=17.8x    frame= 7526 fps=429 q=-0.0 size=N/A time=00:05:13.89 bitrate=N/A speed=17.9x    frame= 7773 fps=431 q=-0.0 size=N/A time=00:05:24.19 bitrate=N/A speed=  18x    frame= 8019 fps=432 q=-0.0 size=N/A time=00:05:34.45 bitrate=N/A speed=  18x    frame= 8264 fps=433 q=-0.0 size=N/A time=00:05:44.67 bitrate=N/A speed=18.1x    frame= 8505 fps=434 q=-0.0 size=N/A time=00:05:54.72 bitrate=N/A speed=18.1x    frame= 8734 fps=434 q=-0.0 size=N/A time=00:06:04.28 bitrate=N/A speed=18.1x    frame= 8952 fps=434 q=-0.0 size=N/A time=00:06:13.37 bitrate=N/A speed=18.1x    frame= 9196 fps=435 q=-0.0 size=N/A time=00:06:23.54 bitrate=N/A speed=18.1x    frame= 9415 fps=435 q=-0.0 size=N/A time=00:06:32.68 bitrate=N/A speed=18.1x    frame= 9651 fps=435 q=-0.0 size=N/A time=00:06:42.52 bitrate=N/A speed=18.2x    frame= 9869 fps=435 q=-0.0 size=N/A time=00:06:51.61 bitrate=N/A speed=18.1x    frame=10065 fps=434 q=-0.0 size=N/A time=00:06:59.79 bitrate=N/A speed=18.1x    frame=10295 fps=434 q=-0.0 size=N/A time=00:07:09.38 bitrate=N/A speed=18.1x    frame=10499 fps=433 q=-0.0 size=N/A time=00:07:17.89 bitrate=N/A speed=18.1x    frame=10750 fps=434 q=-0.0 size=N/A time=00:07:28.36 bitrate=N/A speed=18.1x    frame=10970 fps=434 q=-0.0 size=N/A time=00:07:37.54 bitrate=N/A speed=18.1x    frame=11224 fps=435 q=-0.0 size=N/A time=00:07:48.13 bitrate=N/A speed=18.2x    frame=11482 fps=437 q=-0.0 size=N/A time=00:07:58.89 bitrate=N/A speed=18.2x    frame=11737 fps=438 q=-0.0 size=N/A time=00:08:09.53 bitrate=N/A speed=18.3x    frame=11963 fps=438 q=-0.0 size=N/A time=00:08:18.95 bitrate=N/A speed=18.3x    frame=12192 fps=438 q=-0.0 size=N/A time=00:08:28.50 bitrate=N/A speed=18.3x    frame=12445 fps=439 q=-0.0 size=N/A time=00:08:39.06 bitrate=N/A speed=18.3x    frame=12659 fps=439 q=-0.0 size=N/A time=00:08:47.98 bitrate=N/A speed=18.3x    frame=12884 fps=439 q=-0.0 size=N/A time=00:08:57.37 bitrate=N/A speed=18.3x    frame=13137 fps=439 q=-0.0 size=N/A time=00:09:07.92 bitrate=N/A speed=18.3x    frame=13343 fps=439 q=-0.0 size=N/A time=00:09:16.51 bitrate=N/A speed=18.3x    frame=13593 fps=439 q=-0.0 size=N/A time=00:09:26.94 bitrate=N/A speed=18.3x    frame=13816 fps=439 q=-0.0 size=N/A time=00:09:36.24 bitrate=N/A speed=18.3x    frame=14070 fps=440 q=-0.0 size=N/A time=00:09:46.83 bitrate=N/A speed=18.4x    frame=14346 fps=441 q=-0.0 size=N/A time=00:09:58.34 bitrate=N/A speed=18.4x    frame=14588 fps=442 q=-0.0 size=N/A time=00:10:08.44 bitrate=N/A speed=18.4x    frame=14856 fps=443 q=-0.0 size=N/A time=00:10:19.61 bitrate=N/A speed=18.5x    frame=15110 fps=444 q=-0.0 size=N/A time=00:10:30.21 bitrate=N/A speed=18.5x    frame=15374 fps=445 q=-0.0 size=N/A time=00:10:41.22 bitrate=N/A speed=18.6x    frame=15602 fps=445 q=-0.0 size=N/A time=00:10:50.73 bitrate=N/A speed=18.6x    frame=15843 fps=445 q=-0.0 size=N/A time=00:11:00.78 bitrate=N/A speed=18.6x    frame=16106 fps=446 q=-0.0 size=N/A time=00:11:11.75 bitrate=N/A speed=18.6x    frame=16337 fps=446 q=-0.0 size=N/A time=00:11:21.38 bitrate=N/A speed=18.6x    frame=16595 fps=447 q=-0.0 size=N/A time=00:11:32.14 bitrate=N/A speed=18.6x    frame=16833 fps=447 q=-0.0 size=N/A time=00:11:42.07 bitrate=N/A speed=18.6x    frame=17089 fps=448 q=-0.0 size=N/A time=00:11:52.75 bitrate=N/A speed=18.7x    frame=17352 fps=449 q=-0.0 size=N/A time=00:12:03.72 bitrate=N/A speed=18.7x    frame=17590 fps=449 q=-0.0 size=N/A time=00:12:13.64 bitrate=N/A speed=18.7x    frame=17844 fps=449 q=-0.0 size=N/A time=00:12:24.24 bitrate=N/A speed=18.7x    frame=18092 fps=450 q=-0.0 size=N/A time=00:12:34.58 bitrate=N/A speed=18.8x    frame=18341 fps=450 q=-0.0 size=N/A time=00:12:44.97 bitrate=N/A speed=18.8x    frame=18559 fps=450 q=-0.0 size=N/A time=00:12:54.06 bitrate=N/A speed=18.8x    frame=18798 fps=450 q=-0.0 size=N/A time=00:13:04.03 bitrate=N/A speed=18.8x    frame=19018 fps=450 q=-0.0 size=N/A time=00:13:13.20 bitrate=N/A speed=18.8x    frame=19254 fps=450 q=-0.0 size=N/A time=00:13:23.05 bitrate=N/A speed=18.8x    frame=19491 fps=450 q=-0.0 size=N/A time=00:13:32.93 bitrate=N/A speed=18.8x    frame=19743 fps=450 q=-0.0 size=N/A time=00:13:43.44 bitrate=N/A speed=18.8x    frame=20002 fps=451 q=-0.0 size=N/A time=00:13:54.25 bitrate=N/A speed=18.8x    frame=20265 fps=452 q=-0.0 size=N/A time=00:14:05.21 bitrate=N/A speed=18.8x    frame=20506 fps=452 q=-0.0 size=N/A time=00:14:15.27 bitrate=N/A speed=18.8x    frame=20742 fps=452 q=-0.0 size=N/A time=00:14:25.11 bitrate=N/A speed=18.8x    frame=20984 fps=452 q=-0.0 size=N/A time=00:14:35.20 bitrate=N/A speed=18.9x    frame=21204 fps=452 q=-0.0 size=N/A time=00:14:44.38 bitrate=N/A speed=18.8x    frame=21454 fps=452 q=-0.0 size=N/A time=00:14:54.81 bitrate=N/A speed=18.9x    frame=21692 fps=452 q=-0.0 size=N/A time=00:15:04.73 bitrate=N/A speed=18.9x    frame=21948 fps=453 q=-0.0 size=N/A time=00:15:15.41 bitrate=N/A speed=18.9x    frame=22170 fps=453 q=-0.0 size=N/A time=00:15:24.67 bitrate=N/A speed=18.9x    frame=22439 fps=453 q=-0.0 size=N/A time=00:15:35.89 bitrate=N/A speed=18.9x    frame=22619 fps=452 q=-0.0 size=N/A time=00:15:43.40 bitrate=N/A speed=18.9x    frame=22834 fps=452 q=-0.0 size=N/A time=00:15:52.36 bitrate=N/A speed=18.8x    frame=23003 fps=451 q=-0.0 size=N/A time=00:15:59.41 bitrate=N/A speed=18.8x    frame=23202 fps=450 q=-0.0 size=N/A time=00:16:07.71 bitrate=N/A speed=18.8x    frame=23394 fps=449 q=-0.0 size=N/A time=00:16:15.72 bitrate=N/A speed=18.7x    frame=23559 fps=448 q=-0.0 size=N/A time=00:16:22.60 bitrate=N/A speed=18.7x    frame=23805 fps=448 q=-0.0 size=N/A time=00:16:32.86 bitrate=N/A speed=18.7x    frame=24034 fps=448 q=-0.0 size=N/A time=00:16:42.41 bitrate=N/A speed=18.7x    frame=24281 fps=448 q=-0.0 size=N/A time=00:16:52.72 bitrate=N/A speed=18.7x    frame=24499 fps=448 q=-0.0 size=N/A time=00:17:01.81 bitrate=N/A speed=18.7x    frame=24746 fps=448 q=-0.0 size=N/A time=00:17:12.11 bitrate=N/A speed=18.7x    frame=24935 fps=448 q=-0.0 size=N/A time=00:17:19.99 bitrate=N/A speed=18.7x    frame=25094 fps=446 q=-0.0 size=N/A time=00:17:26.62 bitrate=N/A speed=18.6x    frame=25283 fps=446 q=-0.0 size=N/A time=00:17:34.51 bitrate=N/A speed=18.6x    frame=25538 fps=446 q=-0.0 size=N/A time=00:17:45.14 bitrate=N/A speed=18.6x    frame=25773 fps=446 q=-0.0 size=N/A time=00:17:54.94 bitrate=N/A speed=18.6x    frame=26012 fps=446 q=-0.0 size=N/A time=00:18:04.91 bitrate=N/A speed=18.6x    frame=26245 fps=446 q=-0.0 size=N/A time=00:18:14.63 bitrate=N/A speed=18.6x    frame=26485 fps=447 q=-0.0 size=N/A time=00:18:24.64 bitrate=N/A speed=18.6x    frame=26703 fps=446 q=-0.0 size=N/A time=00:18:33.73 bitrate=N/A speed=18.6x    frame=26947 fps=447 q=-0.0 size=N/A time=00:18:43.91 bitrate=N/A speed=18.6x    frame=27192 fps=447 q=-0.0 size=N/A time=00:18:54.13 bitrate=N/A speed=18.6x    frame=27441 fps=447 q=-0.0 size=N/A time=00:19:04.51 bitrate=N/A speed=18.6x    frame=27682 fps=447 q=-0.0 size=N/A time=00:19:14.57 bitrate=N/A speed=18.7x    frame=27863 fps=447 q=-0.0 size=N/A time=00:19:22.11 bitrate=N/A speed=18.6x    frame=28085 fps=446 q=-0.0 size=N/A time=00:19:31.37 bitrate=N/A speed=18.6x    frame=28345 fps=447 q=-0.0 size=N/A time=00:19:42.22 bitrate=N/A speed=18.6x    frame=28587 fps=447 q=-0.0 size=N/A time=00:19:52.31 bitrate=N/A speed=18.6x    frame=28814 fps=447 q=-0.0 size=N/A time=00:20:01.78 bitrate=N/A speed=18.6x    frame=29025 fps=447 q=-0.0 size=N/A time=00:20:10.58 bitrate=N/A speed=18.6x    frame=29237 fps=446 q=-0.0 size=N/A time=00:20:19.42 bitrate=N/A speed=18.6x    frame=29445 fps=446 q=-0.0 size=N/A time=00:20:28.10 bitrate=N/A speed=18.6x    frame=29663 fps=446 q=-0.0 size=N/A time=00:20:37.19 bitrate=N/A speed=18.6x    frame=29873 fps=446 q=-0.0 size=N/A time=00:20:45.95 bitrate=N/A speed=18.6x    frame=30108 fps=446 q=-0.0 size=N/A time=00:20:55.75 bitrate=N/A speed=18.6x    frame=30335 fps=446 q=-0.0 size=N/A time=00:21:05.22 bitrate=N/A speed=18.6x    frame=30599 fps=446 q=-0.0 size=N/A time=00:21:16.23 bitrate=N/A speed=18.6x    frame=30848 fps=446 q=-0.0 size=N/A time=00:21:26.61 bitrate=N/A speed=18.6x    frame=31102 fps=447 q=-0.0 size=N/A time=00:21:37.21 bitrate=N/A speed=18.6x    frame=31348 fps=447 q=-0.0 size=N/A time=00:21:47.47 bitrate=N/A speed=18.6x    frame=31598 fps=447 q=-0.0 size=N/A time=00:21:57.89 bitrate=N/A speed=18.7x    frame=31818 fps=447 q=-0.0 size=N/A time=00:22:07.07 bitrate=N/A speed=18.6x    frame=32048 fps=447 q=-0.0 size=N/A time=00:22:16.66 bitrate=N/A speed=18.6x    frame=32264 fps=447 q=-0.0 size=N/A time=00:22:25.67 bitrate=N/A speed=18.6x    frame=32485 fps=447 q=-0.0 size=N/A time=00:22:34.89 bitrate=N/A speed=18.6x    frame=32674 fps=446 q=-0.0 size=N/A time=00:22:42.77 bitrate=N/A speed=18.6x    frame=32847 fps=445 q=-0.0 size=N/A time=00:22:49.99 bitrate=N/A speed=18.6x    frame=33048 fps=445 q=-0.0 size=N/A time=00:22:58.37 bitrate=N/A speed=18.6x    frame=33242 fps=445 q=-0.0 size=N/A time=00:23:06.46 bitrate=N/A speed=18.5x    frame=33419 fps=444 q=-0.0 size=N/A time=00:23:13.85 bitrate=N/A speed=18.5x    frame=33603 fps=443 q=-0.0 size=N/A time=00:23:21.52 bitrate=N/A speed=18.5x    frame=33797 fps=443 q=-0.0 size=N/A time=00:23:29.61 bitrate=N/A speed=18.5x    frame=34026 fps=443 q=-0.0 size=N/A time=00:23:39.16 bitrate=N/A speed=18.5x    [Parsed_ssim_10 @ 00000218fc608a00] SSIM Y:0.992319 (21.145580) U:0.994640 (22.708399) V:0.994647 (22.714199) All:0.993094 (21.607478)
[out#0/null @ 00000218ef1a2d40] video:14696KiB audio:267492KiB subtitle:0KiB other streams:0KiB global headers:0KiB muxing overhead: unknown
frame=34202 fps=442 q=-0.0 Lsize=N/A time=00:23:46.50 bitrate=N/A speed=18.4x    
